<?xml version="1.0" encoding="UTF-8"?><svg xmlns="http://www.w3.org/2000/svg" xmlns:xlink="http://www.w3.org/1999/xlink" fill-opacity="1" color-rendering="auto" color-interpolation="auto" text-rendering="auto" stroke="black" stroke-linecap="square" width="329" stroke-miterlimit="10" shape-rendering="auto" stroke-opacity="1" fill="black" stroke-dasharray="none" font-weight="normal" stroke-width="1" height="77" font-family="'Dialog'" font-style="normal" stroke-linejoin="miter" font-size="12px" stroke-dashoffset="0" image-rendering="auto">
  <!--Generated by ySVG 2.5-->
  <defs id="genericDefs"/>
  <g>
    <defs id="defs1">
      <clipPath clipPathUnits="userSpaceOnUse" id="clipPath1">
        <path d="M0 0 L329 0 L329 77 L0 77 L0 0 Z"/>
      </clipPath>
      <clipPath clipPathUnits="userSpaceOnUse" id="clipPath2">
        <path d="M632 338 L961 338 L961 415 L632 415 L632 338 Z"/>
      </clipPath>
    </defs>
    <g fill="rgb(153,204,0)" text-rendering="geometricPrecision" shape-rendering="geometricPrecision" transform="matrix(1,0,0,1,-632,-338)" stroke="rgb(153,204,0)">
      <path d="M707.7999 361.64 L734.7999 361.64 L737.7999 376.64 L734.7999 391.64 L707.7999 391.64 L710.7999 376.64 Z" fill-rule="evenodd" clip-path="url(#clipPath2)" stroke="none"/>
    </g>
    <g text-rendering="geometricPrecision" stroke-miterlimit="1.45" shape-rendering="geometricPrecision" transform="matrix(1,0,0,1,-632,-338)" stroke-linecap="butt">
      <path fill="none" d="M707.7999 361.64 L734.7999 361.64 L737.7999 376.64 L734.7999 391.64 L707.7999 391.64 L710.7999 376.64 Z" fill-rule="evenodd" clip-path="url(#clipPath2)"/>
    </g>
    <g fill="rgb(255,204,0)" text-rendering="geometricPrecision" shape-rendering="geometricPrecision" transform="matrix(1,0,0,1,-632,-338)" stroke="rgb(255,204,0)">
      <path d="M737.7999 361.6397 L764.7999 361.6397 L767.7999 376.6397 L764.7999 391.6397 L737.7999 391.6397 L740.7999 376.6397 Z" fill-rule="evenodd" clip-path="url(#clipPath2)" stroke="none"/>
    </g>
    <g text-rendering="geometricPrecision" stroke-miterlimit="1.45" shape-rendering="geometricPrecision" transform="matrix(1,0,0,1,-632,-338)" stroke-linecap="butt">
      <path fill="none" d="M737.7999 361.6397 L764.7999 361.6397 L767.7999 376.6397 L764.7999 391.6397 L737.7999 391.6397 L740.7999 376.6397 Z" fill-rule="evenodd" clip-path="url(#clipPath2)"/>
    </g>
    <g fill="red" text-rendering="geometricPrecision" shape-rendering="geometricPrecision" transform="matrix(1,0,0,1,-632,-338)" stroke="red">
      <path d="M827.7999 361.6396 L854.7999 361.6396 L857.7999 376.6396 L854.7999 391.6396 L827.7999 391.6396 L830.7999 376.6396 Z" fill-rule="evenodd" clip-path="url(#clipPath2)" stroke="none"/>
    </g>
    <g text-rendering="geometricPrecision" stroke-miterlimit="1.45" shape-rendering="geometricPrecision" transform="matrix(1,0,0,1,-632,-338)" stroke-linecap="butt">
      <path fill="none" d="M827.7999 361.6396 L854.7999 361.6396 L857.7999 376.6396 L854.7999 391.6396 L827.7999 391.6396 L830.7999 376.6396 Z" fill-rule="evenodd" clip-path="url(#clipPath2)"/>
    </g>
    <g fill="white" text-rendering="geometricPrecision" shape-rendering="geometricPrecision" transform="matrix(1,0,0,1,-632,-338)" stroke="white">
      <path d="M857.7999 361.6399 L884.7999 361.6399 L887.7999 376.6399 L884.7999 391.6399 L857.7999 391.6399 L860.7999 376.6399 Z" fill-rule="evenodd" clip-path="url(#clipPath2)" stroke="none"/>
    </g>
    <g text-rendering="geometricPrecision" stroke-miterlimit="1.45" shape-rendering="geometricPrecision" transform="matrix(1,0,0,1,-632,-338)" stroke-linecap="butt">
      <path fill="none" d="M857.7999 361.6399 L884.7999 361.6399 L887.7999 376.6399 L884.7999 391.6399 L857.7999 391.6399 L860.7999 376.6399 Z" fill-rule="evenodd" clip-path="url(#clipPath2)"/>
    </g>
    <g fill="rgb(204,153,255)" text-rendering="geometricPrecision" shape-rendering="geometricPrecision" transform="matrix(1,0,0,1,-632,-338)" stroke="rgb(204,153,255)">
      <path d="M767.8 361.6393 L794.8 361.6393 L797.8 376.6393 L794.8 391.6393 L767.8 391.6393 L770.8 376.6393 Z" fill-rule="evenodd" clip-path="url(#clipPath2)" stroke="none"/>
    </g>
    <g text-rendering="geometricPrecision" stroke-miterlimit="1.45" shape-rendering="geometricPrecision" transform="matrix(1,0,0,1,-632,-338)" stroke-linecap="butt">
      <path fill="none" d="M767.8 361.6393 L794.8 361.6393 L797.8 376.6393 L794.8 391.6393 L767.8 391.6393 L770.8 376.6393 Z" fill-rule="evenodd" clip-path="url(#clipPath2)"/>
    </g>
    <g fill="rgb(255,102,0)" text-rendering="geometricPrecision" shape-rendering="geometricPrecision" transform="matrix(1,0,0,1,-632,-338)" stroke="rgb(255,102,0)">
      <path d="M797.8001 361.6394 L824.8001 361.6394 L827.8001 376.6394 L824.8001 391.6394 L797.8001 391.6394 L800.8001 376.6394 Z" fill-rule="evenodd" clip-path="url(#clipPath2)" stroke="none"/>
    </g>
    <g text-rendering="geometricPrecision" stroke-miterlimit="1.45" shape-rendering="geometricPrecision" transform="matrix(1,0,0,1,-632,-338)" stroke-linecap="butt">
      <path fill="none" d="M797.8001 361.6394 L824.8001 361.6394 L827.8001 376.6394 L824.8001 391.6394 L797.8001 391.6394 L800.8001 376.6394 Z" fill-rule="evenodd" clip-path="url(#clipPath2)"/>
      <rect fill="none" x="696.04" width="201.52" height="46" y="353.64" clip-path="url(#clipPath2)"/>
      <path fill="none" d="M677.8 376.64 L702.8029 376.64" clip-path="url(#clipPath2)"/>
      <path d="M710.8029 376.64 L698.8029 371.64 L701.8029 376.64 L698.8029 381.64 Z" clip-path="url(#clipPath2)" stroke="none"/>
      <path fill="none" d="M887.7814 376.64 L907.8 376.64" clip-path="url(#clipPath2)"/>
      <path d="M915.8 376.64 L903.8 371.64 L906.8 376.64 L903.8 381.64 Z" clip-path="url(#clipPath2)" stroke="none"/>
    </g>
  </g>
</svg>
