<?xml version="1.0" encoding="UTF-8"?><svg xmlns="http://www.w3.org/2000/svg" xmlns:xlink="http://www.w3.org/1999/xlink" fill-opacity="1" color-rendering="auto" color-interpolation="auto" text-rendering="auto" stroke="black" stroke-linecap="square" width="427" stroke-miterlimit="10" shape-rendering="auto" stroke-opacity="1" fill="black" stroke-dasharray="none" font-weight="normal" stroke-width="1" height="279" font-family="'Dialog'" font-style="normal" stroke-linejoin="miter" font-size="12px" stroke-dashoffset="0" image-rendering="auto">
  <!--Generated by ySVG 2.5-->
  <defs id="genericDefs"/>
  <g>
    <defs id="defs1">
      <clipPath clipPathUnits="userSpaceOnUse" id="clipPath1">
        <path d="M0 0 L427 0 L427 279 L0 279 L0 0 Z"/>
      </clipPath>
      <clipPath clipPathUnits="userSpaceOnUse" id="clipPath2">
        <path d="M445 285 L872 285 L872 564 L445 564 L445 285 Z"/>
      </clipPath>
      <clipPath clipPathUnits="userSpaceOnUse" id="clipPath3">
        <path d="M-97.4834 361.2012 L-97.4834 -65.7988 L181.5166 -65.7988 L181.5166 361.2012 L-97.4834 361.2012 Z"/>
      </clipPath>
      <clipPath clipPathUnits="userSpaceOnUse" id="clipPath4">
        <path d="M-119.2246 107.2012 L-119.2246 -319.7988 L159.7754 -319.7988 L159.7754 107.2012 L-119.2246 107.2012 Z"/>
      </clipPath>
    </defs>
    <g fill="white" text-rendering="geometricPrecision" shape-rendering="geometricPrecision" transform="translate(-445,-285)" stroke="white">
      <rect x="445" width="427" height="279" y="285" clip-path="url(#clipPath2)" stroke="none"/>
    </g>
    <g fill="rgb(204,255,204)" text-rendering="geometricPrecision" shape-rendering="geometricPrecision" transform="matrix(1,0,0,1,-445,-285)" stroke="rgb(204,255,204)">
      <rect x="460" width="143" height="31" y="349" clip-path="url(#clipPath2)" stroke="none"/>
      <rect x="460" y="349" clip-path="url(#clipPath2)" fill="white" width="1" height="31" stroke="none"/>
      <rect x="461" y="349" clip-path="url(#clipPath2)" fill="white" width="141" height="1" stroke="none"/>
      <rect x="461" y="379" clip-path="url(#clipPath2)" fill="rgb(142,178,142)" width="142" height="1" stroke="none"/>
      <rect x="602" y="349" clip-path="url(#clipPath2)" fill="rgb(142,178,142)" width="1" height="30" stroke="none"/>
    </g>
    <g text-rendering="geometricPrecision" stroke-miterlimit="1.45" shape-rendering="geometricPrecision" font-family="sans-serif" transform="matrix(1,0,0,1,-445,-285)" stroke-linecap="butt">
      <text x="481.4756" xml:space="preserve" y="369.2139" clip-path="url(#clipPath2)" stroke="none">document-provider</text>
    </g>
    <g fill="rgb(204,255,204)" text-rendering="geometricPrecision" shape-rendering="geometricPrecision" transform="matrix(1,0,0,1,-445,-285)" stroke="rgb(204,255,204)">
      <rect x="460" width="143" height="31" y="306" clip-path="url(#clipPath2)" stroke="none"/>
      <rect x="460" y="306" clip-path="url(#clipPath2)" fill="white" width="1" height="31" stroke="none"/>
      <rect x="461" y="306" clip-path="url(#clipPath2)" fill="white" width="141" height="1" stroke="none"/>
      <rect x="461" y="336" clip-path="url(#clipPath2)" fill="rgb(142,178,142)" width="142" height="1" stroke="none"/>
      <rect x="602" y="306" clip-path="url(#clipPath2)" fill="rgb(142,178,142)" width="1" height="30" stroke="none"/>
    </g>
    <g text-rendering="geometricPrecision" stroke-miterlimit="1.45" shape-rendering="geometricPrecision" font-family="sans-serif" transform="matrix(1,0,0,1,-445,-285)" stroke-linecap="butt">
      <text x="501.1572" xml:space="preserve" y="326.2139" clip-path="url(#clipPath2)" stroke="none">jar-provider</text>
    </g>
    <g fill="rgb(51,102,255)" text-rendering="geometricPrecision" shape-rendering="geometricPrecision" transform="matrix(1,0,0,1,-445,-285)" stroke="rgb(51,102,255)">
      <rect x="714" width="143" height="31" y="518" clip-path="url(#clipPath2)" stroke="none"/>
      <rect x="714" y="518" clip-path="url(#clipPath2)" fill="rgb(72,145,255)" width="1" height="31" stroke="none"/>
      <rect x="715" y="518" clip-path="url(#clipPath2)" fill="rgb(72,145,255)" width="141" height="1" stroke="none"/>
      <rect x="715" y="548" clip-path="url(#clipPath2)" fill="rgb(35,71,178)" width="142" height="1" stroke="none"/>
      <rect x="856" y="518" clip-path="url(#clipPath2)" fill="rgb(35,71,178)" width="1" height="30" stroke="none"/>
    </g>
    <g stroke-linecap="butt" transform="matrix(1,0,0,1,-445,-285)" fill="white" text-rendering="geometricPrecision" font-family="sans-serif" shape-rendering="geometricPrecision" stroke="white" stroke-miterlimit="1.45">
      <text x="749.8223" xml:space="preserve" y="538.2139" clip-path="url(#clipPath2)" stroke="none">Spark Master</text>
    </g>
    <g fill="rgb(153,204,255)" text-rendering="geometricPrecision" shape-rendering="geometricPrecision" transform="matrix(1,0,0,1,-445,-285)" stroke="rgb(153,204,255)">
      <rect x="736" width="99" height="31" y="306" clip-path="url(#clipPath2)" stroke="none"/>
      <rect x="736" y="306" clip-path="url(#clipPath2)" fill="rgb(218,255,255)" width="1" height="31" stroke="none"/>
      <rect x="737" y="306" clip-path="url(#clipPath2)" fill="rgb(218,255,255)" width="97" height="1" stroke="none"/>
      <rect x="737" y="336" clip-path="url(#clipPath2)" fill="rgb(107,142,178)" width="98" height="1" stroke="none"/>
      <rect x="834" y="306" clip-path="url(#clipPath2)" fill="rgb(107,142,178)" width="1" height="30" stroke="none"/>
    </g>
    <g text-rendering="geometricPrecision" stroke-miterlimit="1.45" shape-rendering="geometricPrecision" font-family="sans-serif" transform="matrix(1,0,0,1,-445,-285)" stroke-linecap="butt">
      <text x="748.8262" xml:space="preserve" y="326.2139" clip-path="url(#clipPath2)" stroke="none">Spark Worker</text>
    </g>
    <g fill="rgb(255,153,0)" text-rendering="geometricPrecision" shape-rendering="geometricPrecision" transform="matrix(1,0,0,1,-445,-285)" stroke="rgb(255,153,0)">
      <rect x="460" width="143" height="30" y="518.5" clip-path="url(#clipPath2)" stroke="none"/>
      <rect x="460" y="518.5" clip-path="url(#clipPath2)" fill="rgb(255,218,0)" width="1" height="30" stroke="none"/>
      <rect x="461" y="518.5" clip-path="url(#clipPath2)" fill="rgb(255,218,0)" width="141" height="1" stroke="none"/>
      <rect x="461" y="547.5" clip-path="url(#clipPath2)" fill="rgb(178,107,0)" width="142" height="1" stroke="none"/>
      <rect x="602" y="518.5" clip-path="url(#clipPath2)" fill="rgb(178,107,0)" width="1" height="29" stroke="none"/>
    </g>
    <g text-rendering="geometricPrecision" stroke-miterlimit="1.45" shape-rendering="geometricPrecision" font-family="sans-serif" transform="matrix(1,0,0,1,-445,-285)" stroke-linecap="butt">
      <text x="505.8242" xml:space="preserve" y="538.2139" clip-path="url(#clipPath2)" stroke="none">Submitter</text>
      <path fill="none" d="M785.5 517.9985 L785.5 336.9954" clip-path="url(#clipPath2)"/>
      <text x="805.4922" xml:space="preserve" y="356.0645" clip-path="url(#clipPath2)" stroke="none">1..n</text>
      <path fill="none" d="M785.5 517.9985 L785.5 336.9954" clip-path="url(#clipPath2)"/>
    </g>
    <g text-rendering="geometricPrecision" stroke-miterlimit="1.45" shape-rendering="geometricPrecision" font-family="sans-serif" transform="matrix(0,1,-1,0,361.2012,97.4834)" stroke-linecap="butt">
      <text x="2" xml:space="preserve" y="14.0645" clip-path="url(#clipPath3)" stroke="none">distributes tasks</text>
    </g>
    <g text-rendering="geometricPrecision" stroke-miterlimit="1.45" shape-rendering="geometricPrecision" transform="matrix(1,0,0,1,-445,-285)" stroke-linecap="butt">
      <path fill="none" d="M785.5 337.0015 L785.5 518.0046" clip-path="url(#clipPath2)"/>
      <text x="752.1631" xml:space="preserve" y="508.3633" clip-path="url(#clipPath2)" font-family="sans-serif" stroke="none">1</text>
      <path fill="none" d="M735.9836 321.5 L611.0393 321.5" clip-path="url(#clipPath2)"/>
      <path d="M603.0393 321.5 L615.0393 326.5 L612.0393 321.5 L615.0393 316.5 Z" clip-path="url(#clipPath2)" stroke="none"/>
      <text x="630.8105" xml:space="preserve" y="314.8633" clip-path="url(#clipPath2)" font-family="sans-serif" stroke="none">download JAR</text>
      <path fill="none" d="M531.5 518.5227 L531.5 388.0301" clip-path="url(#clipPath2)"/>
      <path d="M531.5 380.0301 L526.5 392.0301 L531.5 389.0301 L536.5 392.0301 Z" clip-path="url(#clipPath2)" stroke="none"/>
    </g>
    <g text-rendering="geometricPrecision" stroke-miterlimit="1.45" shape-rendering="geometricPrecision" font-family="sans-serif" transform="matrix(0,1,-1,0,107.2012,119.2246)" stroke-linecap="butt">
      <text x="2" xml:space="preserve" y="14.0645" clip-path="url(#clipPath4)" stroke="none">read documents</text>
    </g>
    <g text-rendering="geometricPrecision" stroke-miterlimit="1.45" shape-rendering="geometricPrecision" transform="matrix(1,0,0,1,-445,-285)" stroke-linecap="butt">
      <path fill="none" d="M603.0305 533.5 L706.0001 533.5" clip-path="url(#clipPath2)"/>
      <path d="M714.0001 533.5 L702.0001 528.5 L705.0001 533.5 L702.0001 538.5 Z" clip-path="url(#clipPath2)" stroke="none"/>
      <text x="631.4854" xml:space="preserve" y="526.8633" clip-path="url(#clipPath2)" font-family="sans-serif" stroke="none">send CAS</text>
    </g>
  </g>
</svg>
