<?xml version="1.0" encoding="UTF-8"?><svg xmlns="http://www.w3.org/2000/svg" xmlns:xlink="http://www.w3.org/1999/xlink" fill-opacity="1" color-rendering="auto" color-interpolation="auto" text-rendering="auto" stroke="black" stroke-linecap="square" width="709" stroke-miterlimit="10" shape-rendering="auto" stroke-opacity="1" fill="black" stroke-dasharray="none" font-weight="normal" stroke-width="1" height="550" font-family="'Dialog'" font-style="normal" stroke-linejoin="miter" font-size="12px" stroke-dashoffset="0" image-rendering="auto">
  <!--Generated by ySVG 2.5-->
  <defs id="genericDefs"/>
  <g>
    <g fill="white" text-rendering="geometricPrecision" shape-rendering="geometricPrecision" transform="translate(-304,-322)" stroke="white">
      <rect x="304" width="709" height="550" y="322" clip-path="url(#clipPath2)" stroke="none"/>
    </g>
    <g text-rendering="geometricPrecision" stroke-miterlimit="1.45" shape-rendering="geometricPrecision" transform="matrix(1,0,0,1,-304,-322)" stroke-linecap="butt">
      <rect fill="none" x="434" width="564" height="271" y="337" clip-path="url(#clipPath2)"/>
      <text x="440" xml:space="preserve" y="355.0645" clip-path="url(#clipPath2)" font-family="sans-serif" stroke="none">Shared UIMA Processor</text>
    </g>
    <g fill="url(#linearGradient1)" text-rendering="geometricPrecision" shape-rendering="geometricPrecision" transform="matrix(1,0,0,1,-304,-322)" stroke="url(#linearGradient1)">
      <rect x="868" width="113" height="174" y="670.5" clip-path="url(#clipPath2)" stroke="none"/>
    </g>
    <g text-rendering="geometricPrecision" stroke-miterlimit="1.45" shape-rendering="geometricPrecision" transform="matrix(1,0,0,1,-304,-322)" stroke-linecap="butt">
      <rect fill="none" x="868" width="113" height="174" y="670.5" clip-path="url(#clipPath2)"/>
      <text x="906.1631" xml:space="preserve" y="762.2139" clip-path="url(#clipPath2)" font-family="sans-serif" stroke="none">Master</text>
    </g>
    <g fill="url(#linearGradient2)" text-rendering="geometricPrecision" shape-rendering="geometricPrecision" transform="matrix(1,0,0,1,-304,-322)" stroke="url(#linearGradient2)">
      <rect x="446.375" width="400" height="54" y="790.5" clip-path="url(#clipPath2)" stroke="none"/>
    </g>
    <g text-rendering="geometricPrecision" stroke-miterlimit="1.45" shape-rendering="geometricPrecision" transform="matrix(1,0,0,1,-304,-322)" stroke-linecap="butt">
      <rect fill="none" x="446.375" width="400" height="54" y="790.5" clip-path="url(#clipPath2)"/>
      <text x="452.375" xml:space="preserve" y="808.5645" clip-path="url(#clipPath2)" font-family="sans-serif" stroke="none">Worker</text>
    </g>
    <g fill="url(#linearGradient3)" text-rendering="geometricPrecision" shape-rendering="geometricPrecision" transform="matrix(1,0,0,1,-304,-322)" stroke="url(#linearGradient3)">
      <rect x="725.75" y="802.5" clip-path="url(#clipPath2)" width="94" rx="4" ry="4" height="30" stroke="none"/>
    </g>
    <g text-rendering="geometricPrecision" stroke-miterlimit="1.45" shape-rendering="geometricPrecision" transform="matrix(1,0,0,1,-304,-322)" stroke-linecap="butt">
      <rect x="725.75" y="802.5" clip-path="url(#clipPath2)" fill="none" width="94" rx="4" ry="4" height="30"/>
      <text x="737.4033" xml:space="preserve" y="822.2139" clip-path="url(#clipPath2)" font-family="sans-serif" stroke="none">Compression</text>
    </g>
    <g fill="rgb(254,189,146)" text-rendering="geometricPrecision" shape-rendering="geometricPrecision" transform="matrix(1,0,0,1,-304,-322)" stroke="rgb(254,189,146)">
      <rect x="612.375" y="802.5" clip-path="url(#clipPath2)" width="94" rx="4" ry="4" height="30" stroke="none"/>
    </g>
    <g text-rendering="geometricPrecision" stroke-miterlimit="1.45" shape-rendering="geometricPrecision" transform="matrix(1,0,0,1,-304,-322)" stroke-linecap="butt">
      <rect x="612.375" y="802.5" clip-path="url(#clipPath2)" fill="none" width="94" rx="4" ry="4" height="30"/>
      <text x="626.6914" xml:space="preserve" y="822.2139" clip-path="url(#clipPath2)" font-family="sans-serif" stroke="none">Serialization</text>
      <rect fill="none" x="434" width="564" height="219" y="638" clip-path="url(#clipPath2)"/>
      <text x="440" xml:space="preserve" y="656.0645" clip-path="url(#clipPath2)" font-family="sans-serif" stroke="none">Spark</text>
    </g>
    <g fill="rgb(153,204,255)" text-rendering="geometricPrecision" shape-rendering="geometricPrecision" transform="matrix(1,0,0,1,-304,-322)" stroke="rgb(153,204,255)">
      <rect x="499" y="802.5" clip-path="url(#clipPath2)" width="94" rx="4" ry="4" height="30" stroke="none"/>
    </g>
    <g text-rendering="geometricPrecision" stroke-miterlimit="1.45" shape-rendering="geometricPrecision" transform="matrix(1,0,0,1,-304,-322)" stroke-linecap="butt">
      <rect x="499" y="802.5" clip-path="url(#clipPath2)" fill="none" width="94" rx="4" ry="4" height="30"/>
      <text x="523.6582" xml:space="preserve" y="822.2139" clip-path="url(#clipPath2)" font-family="sans-serif" stroke="none">Analysis</text>
    </g>
    <g fill="url(#linearGradient4)" text-rendering="geometricPrecision" shape-rendering="geometricPrecision" transform="matrix(1,0,0,1,-304,-322)" stroke="url(#linearGradient4)">
      <rect x="446.375" width="400" height="54" y="730.5" clip-path="url(#clipPath2)" stroke="none"/>
    </g>
    <g text-rendering="geometricPrecision" stroke-miterlimit="1.45" shape-rendering="geometricPrecision" transform="matrix(1,0,0,1,-304,-322)" stroke-linecap="butt">
      <rect fill="none" x="446.375" width="400" height="54" y="730.5" clip-path="url(#clipPath2)"/>
      <text x="452.375" xml:space="preserve" y="748.5645" clip-path="url(#clipPath2)" font-family="sans-serif" stroke="none">Worker</text>
    </g>
    <g fill="url(#linearGradient5)" text-rendering="geometricPrecision" shape-rendering="geometricPrecision" transform="matrix(1,0,0,1,-304,-322)" stroke="url(#linearGradient5)">
      <rect x="725.75" y="742.5" clip-path="url(#clipPath2)" width="94" rx="4" ry="4" height="30" stroke="none"/>
    </g>
    <g text-rendering="geometricPrecision" stroke-miterlimit="1.45" shape-rendering="geometricPrecision" transform="matrix(1,0,0,1,-304,-322)" stroke-linecap="butt">
      <rect x="725.75" y="742.5" clip-path="url(#clipPath2)" fill="none" width="94" rx="4" ry="4" height="30"/>
      <text x="737.4033" xml:space="preserve" y="762.2139" clip-path="url(#clipPath2)" font-family="sans-serif" stroke="none">Compression</text>
    </g>
    <g fill="rgb(254,189,146)" text-rendering="geometricPrecision" shape-rendering="geometricPrecision" transform="matrix(1,0,0,1,-304,-322)" stroke="rgb(254,189,146)">
      <rect x="612.375" y="742.5" clip-path="url(#clipPath2)" width="94" rx="4" ry="4" height="30" stroke="none"/>
    </g>
    <g text-rendering="geometricPrecision" stroke-miterlimit="1.45" shape-rendering="geometricPrecision" transform="matrix(1,0,0,1,-304,-322)" stroke-linecap="butt">
      <rect x="612.375" y="742.5" clip-path="url(#clipPath2)" fill="none" width="94" rx="4" ry="4" height="30"/>
      <text x="626.6914" xml:space="preserve" y="762.2139" clip-path="url(#clipPath2)" font-family="sans-serif" stroke="none">Serialization</text>
    </g>
    <g fill="rgb(153,204,255)" text-rendering="geometricPrecision" shape-rendering="geometricPrecision" transform="matrix(1,0,0,1,-304,-322)" stroke="rgb(153,204,255)">
      <rect x="499" y="742.5" clip-path="url(#clipPath2)" width="94" rx="4" ry="4" height="30" stroke="none"/>
    </g>
    <g text-rendering="geometricPrecision" stroke-miterlimit="1.45" shape-rendering="geometricPrecision" transform="matrix(1,0,0,1,-304,-322)" stroke-linecap="butt">
      <rect x="499" y="742.5" clip-path="url(#clipPath2)" fill="none" width="94" rx="4" ry="4" height="30"/>
      <text x="523.6582" xml:space="preserve" y="762.2139" clip-path="url(#clipPath2)" font-family="sans-serif" stroke="none">Analysis</text>
    </g>
    <g fill="url(#linearGradient6)" text-rendering="geometricPrecision" shape-rendering="geometricPrecision" transform="matrix(1,0,0,1,-304,-322)" stroke="url(#linearGradient6)">
      <rect x="446.375" width="400" height="54" y="670.5" clip-path="url(#clipPath2)" stroke="none"/>
    </g>
    <g text-rendering="geometricPrecision" stroke-miterlimit="1.45" shape-rendering="geometricPrecision" transform="matrix(1,0,0,1,-304,-322)" stroke-linecap="butt">
      <rect fill="none" x="446.375" width="400" height="54" y="670.5" clip-path="url(#clipPath2)"/>
      <text x="452.375" xml:space="preserve" y="688.5645" clip-path="url(#clipPath2)" font-family="sans-serif" stroke="none">Worker</text>
    </g>
    <g fill="url(#linearGradient7)" text-rendering="geometricPrecision" shape-rendering="geometricPrecision" transform="matrix(1,0,0,1,-304,-322)" stroke="url(#linearGradient7)">
      <rect x="725.75" y="682.5" clip-path="url(#clipPath2)" width="94" rx="4" ry="4" height="30" stroke="none"/>
    </g>
    <g text-rendering="geometricPrecision" stroke-miterlimit="1.45" shape-rendering="geometricPrecision" transform="matrix(1,0,0,1,-304,-322)" stroke-linecap="butt">
      <rect x="725.75" y="682.5" clip-path="url(#clipPath2)" fill="none" width="94" rx="4" ry="4" height="30"/>
      <text x="737.4033" xml:space="preserve" y="702.2139" clip-path="url(#clipPath2)" font-family="sans-serif" stroke="none">Compression</text>
    </g>
    <g fill="rgb(254,189,146)" text-rendering="geometricPrecision" shape-rendering="geometricPrecision" transform="matrix(1,0,0,1,-304,-322)" stroke="rgb(254,189,146)">
      <rect x="612.375" y="682.5" clip-path="url(#clipPath2)" width="94" rx="4" ry="4" height="30" stroke="none"/>
    </g>
    <g text-rendering="geometricPrecision" stroke-miterlimit="1.45" shape-rendering="geometricPrecision" transform="matrix(1,0,0,1,-304,-322)" stroke-linecap="butt">
      <rect x="612.375" y="682.5" clip-path="url(#clipPath2)" fill="none" width="94" rx="4" ry="4" height="30"/>
      <text x="626.6914" xml:space="preserve" y="702.2139" clip-path="url(#clipPath2)" font-family="sans-serif" stroke="none">Serialization</text>
    </g>
    <g fill="rgb(153,204,255)" text-rendering="geometricPrecision" shape-rendering="geometricPrecision" transform="matrix(1,0,0,1,-304,-322)" stroke="rgb(153,204,255)">
      <rect x="499" y="682.5" clip-path="url(#clipPath2)" width="94" rx="4" ry="4" height="30" stroke="none"/>
    </g>
    <g text-rendering="geometricPrecision" stroke-miterlimit="1.45" shape-rendering="geometricPrecision" transform="matrix(1,0,0,1,-304,-322)" stroke-linecap="butt">
      <rect x="499" y="682.5" clip-path="url(#clipPath2)" fill="none" width="94" rx="4" ry="4" height="30"/>
      <text x="523.6582" xml:space="preserve" y="702.2139" clip-path="url(#clipPath2)" font-family="sans-serif" stroke="none">Analysis</text>
    </g>
    <g fill="url(#linearGradient8)" text-rendering="geometricPrecision" shape-rendering="geometricPrecision" transform="matrix(1,0,0,1,-304,-322)" stroke="url(#linearGradient8)">
      <rect x="765.5" y="561" clip-path="url(#clipPath2)" width="94" rx="4" ry="4" height="30" stroke="none"/>
    </g>
    <g text-rendering="geometricPrecision" stroke-miterlimit="1.45" shape-rendering="geometricPrecision" transform="matrix(1,0,0,1,-304,-322)" stroke-linecap="butt">
      <rect x="765.5" y="561" clip-path="url(#clipPath2)" fill="none" width="94" rx="4" ry="4" height="30"/>
      <text x="777.1533" xml:space="preserve" y="580.7139" clip-path="url(#clipPath2)" font-family="sans-serif" stroke="none">Compression</text>
    </g>
    <g fill="rgb(254,189,146)" text-rendering="geometricPrecision" shape-rendering="geometricPrecision" transform="matrix(1,0,0,1,-304,-322)" stroke="rgb(254,189,146)">
      <rect x="765.5" y="511" clip-path="url(#clipPath2)" width="94" rx="4" ry="4" height="30" stroke="none"/>
    </g>
    <g text-rendering="geometricPrecision" stroke-miterlimit="1.45" shape-rendering="geometricPrecision" transform="matrix(1,0,0,1,-304,-322)" stroke-linecap="butt">
      <rect x="765.5" y="511" clip-path="url(#clipPath2)" fill="none" width="94" rx="4" ry="4" height="30"/>
      <text x="779.8164" xml:space="preserve" y="530.7139" clip-path="url(#clipPath2)" font-family="sans-serif" stroke="none">Serialization</text>
    </g>
    <g fill="url(#linearGradient9)" text-rendering="geometricPrecision" shape-rendering="geometricPrecision" transform="matrix(1,0,0,1,-304,-322)" stroke="url(#linearGradient9)">
      <rect x="575.5" y="451" clip-path="url(#clipPath2)" width="94" rx="4" ry="4" height="40" stroke="none"/>
    </g>
    <g text-rendering="geometricPrecision" stroke-miterlimit="1.45" shape-rendering="geometricPrecision" transform="matrix(1,0,0,1,-304,-322)" stroke-linecap="butt">
      <rect x="575.5" y="451" clip-path="url(#clipPath2)" fill="none" width="94" rx="4" ry="4" height="40"/>
      <text x="596.1533" xml:space="preserve" y="468.3633" clip-path="url(#clipPath2)" font-family="sans-serif" stroke="none">Collection</text>
      <text x="602.8213" xml:space="preserve" y="483.0645" clip-path="url(#clipPath2)" font-family="sans-serif" stroke="none">Reader</text>
    </g>
    <g text-rendering="geometricPrecision" shape-rendering="geometricPrecision" transform="matrix(1.4743,0,0,1.4423,14.7768,127.1924)">
      <g clip-path="url(#clipPath3)">
        <svg xmlns:svg="http://www.w3.org/2000/svg" xmlns:sodipodi="http://sodipodi.sourceforge.net/DTD/sodipodi-0.dtd" xmlns:inkscape="http://www.inkscape.org/namespaces/inkscape" xmlns:dc="http://purl.org/dc/elements/1.1/" xmlns:cc="http://web.resource.org/cc/" xmlns:rdf="http://www.w3.org/1999/02/22-rdf-syntax-ns#" opacity="1" writing-mode="lr-tb" stop-color="rgb(0, 0, 0)" shape-rendering="auto" glyph-orientation-horizontal="0deg" color-profile="auto" lighting-color="rgb(255, 255, 255)" color="rgb(0, 0, 0)" font-weight="400" alignment-baseline="auto" font-style="normal" version="1.0" color-interpolation-filters="linearrgb" text-anchor="start" stroke-linecap="butt" color-interpolation="srgb" font-variant="normal" word-spacing="normal" fill-opacity="1" text-rendering="auto" clip-path="none" text-decoration="none" letter-spacing="normal" glyph-orientation-vertical="auto" display="inline" font-size-adjust="none" overflow="visible" fill="rgb(0, 0, 0)" font-stretch="normal" stroke-dasharray="none" inkscape:version="0.45.1" id="svg1.svg2" stroke-miterlimit="4" stop-opacity="1" color-rendering="auto" font-size="12" sodipodi:docbase="C:\Daten\alberts\projects\yfx" pointer-events="visiblepainted" mask="none" direction="ltr" baseline-shift="baseline" sodipodi:docname="uml_actor.svg" enable-background="accumulate" fill-rule="nonzero" image-rendering="auto" stroke-dashoffset="0" inkscape:output_extension="org.inkscape.output.svg.inkscape" marker-end="none" width="41" clip="auto" cursor="auto" stroke="none" filter="none" visibility="visible" kerning="auto" stroke-width="1" font-family="&quot;Arial&quot;,&quot;Helvetica&quot;,sans-serif" flood-opacity="1" clip-rule="nonzero" src="none" height="68.997391" unicode-bidi="normal" sodipodi:version="0.32" stroke-linejoin="miter" stroke-opacity="1" flood-color="rgb(0, 0, 0)" dominant-baseline="auto" marker-start="none" marker-mid="none">
  <defs id="svg1.defs4">
            <linearGradient x1="905.6667" gradientUnits="userSpaceOnUse" x2="981" y1="670.5" y2="670.5" id="linearGradient1" spreadMethod="reflect">
              <stop stop-opacity="1" stop-color="rgb(204,255,204)" offset="0%"/>
              <stop stop-opacity="1" stop-color="rgb(153,255,204)" offset="100%"/>
            </linearGradient>
            <linearGradient x1="579.7083" gradientUnits="userSpaceOnUse" x2="846.375" y1="790.5" y2="790.5" id="linearGradient2" spreadMethod="reflect">
              <stop stop-opacity="1" stop-color="rgb(204,255,204)" offset="0%"/>
              <stop stop-opacity="1" stop-color="rgb(153,255,204)" offset="100%"/>
            </linearGradient>
            <linearGradient x1="757.0833" gradientUnits="userSpaceOnUse" x2="819.75" y1="802.5" y2="802.5" id="linearGradient3" spreadMethod="reflect">
              <stop stop-opacity="1" stop-color="rgb(249,169,255)" offset="0%"/>
              <stop stop-opacity="1" stop-color="rgb(255,150,251)" offset="100%"/>
            </linearGradient>
            <linearGradient x1="579.7083" gradientUnits="userSpaceOnUse" x2="846.375" y1="730.5" y2="730.5" id="linearGradient4" spreadMethod="reflect">
              <stop stop-opacity="1" stop-color="rgb(204,255,204)" offset="0%"/>
              <stop stop-opacity="1" stop-color="rgb(153,255,204)" offset="100%"/>
            </linearGradient>
            <linearGradient x1="757.0833" gradientUnits="userSpaceOnUse" x2="819.75" y1="742.5" y2="742.5" id="linearGradient5" spreadMethod="reflect">
              <stop stop-opacity="1" stop-color="rgb(249,169,255)" offset="0%"/>
              <stop stop-opacity="1" stop-color="rgb(255,150,251)" offset="100%"/>
            </linearGradient>
            <linearGradient x1="579.7083" gradientUnits="userSpaceOnUse" x2="846.375" y1="670.5" y2="670.5" id="linearGradient6" spreadMethod="reflect">
              <stop stop-opacity="1" stop-color="rgb(204,255,204)" offset="0%"/>
              <stop stop-opacity="1" stop-color="rgb(153,255,204)" offset="100%"/>
            </linearGradient>
            <linearGradient x1="757.0833" gradientUnits="userSpaceOnUse" x2="819.75" y1="682.5" y2="682.5" id="linearGradient7" spreadMethod="reflect">
              <stop stop-opacity="1" stop-color="rgb(249,169,255)" offset="0%"/>
              <stop stop-opacity="1" stop-color="rgb(255,150,251)" offset="100%"/>
            </linearGradient>
            <linearGradient x1="796.8333" gradientUnits="userSpaceOnUse" x2="859.5" y1="561" y2="561" id="linearGradient8" spreadMethod="reflect">
              <stop stop-opacity="1" stop-color="rgb(249,169,255)" offset="0%"/>
              <stop stop-opacity="1" stop-color="rgb(255,150,251)" offset="100%"/>
            </linearGradient>
            <linearGradient x1="606.8333" gradientUnits="userSpaceOnUse" x2="669.5" y1="451" y2="451" id="linearGradient9" spreadMethod="reflect">
              <stop stop-opacity="1" stop-color="rgb(232,238,247)" offset="0%"/>
              <stop stop-opacity="1" stop-color="rgb(183,201,227)" offset="100%"/>
            </linearGradient>
            <linearGradient x1="772.5" gradientUnits="userSpaceOnUse" x2="852.5" y1="451" y2="491" id="linearGradient10" spreadMethod="reflect">
              <stop stop-opacity="1" stop-color="rgb(232,238,247)" offset="0%"/>
              <stop stop-opacity="1" stop-color="rgb(183,201,227)" offset="100%"/>
            </linearGradient>
            <linearGradient x1="606.8333" gradientUnits="userSpaceOnUse" x2="669.5" y1="561" y2="561" id="linearGradient11" spreadMethod="reflect">
              <stop stop-opacity="1" stop-color="rgb(249,169,255)" offset="0%"/>
              <stop stop-opacity="1" stop-color="rgb(255,150,251)" offset="100%"/>
            </linearGradient>
            <clipPath clipPathUnits="userSpaceOnUse" id="clipPath1">
              <path d="M0 0 L709 0 L709 550 L0 550 L0 0 Z"/>
            </clipPath>
            <clipPath clipPathUnits="userSpaceOnUse" id="clipPath2">
              <path d="M304 322 L1013 322 L1013 872 L304 872 L304 322 Z"/>
            </clipPath>
            <clipPath clipPathUnits="userSpaceOnUse" id="clipPath3">
              <path d="M-10.023 -88.1899 L470.8832 -88.1899 L470.8832 293.1573 L-10.023 293.1573 L-10.023 -88.1899 Z"/>
            </clipPath>
          </defs>
  
  <metadata id="svg1.metadata7">
    
  </metadata>
  <g inkscape:groupmode="layer" id="svg1.layer1" transform="translate(-29.5,-42.959476)" inkscape:label="Ebene 1">
    <a id="svg1.a3142" transform="matrix(1.0873906,0,0,1,-4.4741999,0)">
      <path transform="translate(11.586889,5.2908993)" style="fill:none;fill-rule:evenodd;stroke:#000000;stroke-width:1px;stroke-linecap:butt;stroke-linejoin:miter;stroke-opacity:1" sodipodi:cx="38.509369" sodipodi:cy="47.36993" sodipodi:rx="8.5197716" id="svg1.path2160" d="M 47.02914 47.36993 A 8.5197716 9.2013531 0 1 1  29.989597,47.36993 A 8.5197716 9.2013531 0 1 1  47.02914 47.36993 z" sodipodi:ry="9.2013531" sodipodi:type="arc"/>
    </a>
    <path style="fill:none" sodipodi:cx="43.962021" sodipodi:cy="48.392303" d="M 47.71072 48.392303 A 3.7486994 0 0 1 1  40.213321,48.392303 A 3.7486994 0 0 1 1  47.71072 48.392303 z" id="svg1.path3134" sodipodi:rx="3.7486994" sodipodi:ry="0" sodipodi:type="arc"/>
    <path style="fill:none;fill-rule:evenodd;stroke:#000000;stroke-width:1.24319649px;stroke-linecap:butt;stroke-linejoin:miter;stroke-opacity:1" d="M 50,61.33709 C 50,91.363211 50,92.247838 50,92.247838" id="svg1.path3136"/>
    <path style="fill:none;fill-rule:evenodd;stroke:#000000;stroke-width:1px;stroke-linecap:butt;stroke-linejoin:miter;stroke-opacity:1" d="M 69.760668,72.362183 C 69.760668,72.362183 69.760668,72.362183 50.239332,72.362183 C 30.239332,72.362183 30.239332,72.362183 30.239332,72.362183 L 30.239332,72.362183" id="svg1.path3138"/>
    <path style="fill:none;fill-rule:evenodd;stroke:#000000;stroke-width:1px;stroke-linecap:butt;stroke-linejoin:miter;stroke-opacity:1" d="M 30,111.45687 C 30,111.45687 30,111.45687 50,92.013532 C 70,111.45687 70,111.45687 70,111.45687" id="svg1.path3140"/>
  </g>
</svg>
      </g>
    </g>
    <g font-size="13px" stroke-linecap="butt" transform="matrix(1,0,0,1,-304,-322)" text-rendering="geometricPrecision" font-family="sans-serif" shape-rendering="geometricPrecision" stroke-miterlimit="1.45">
      <text x="335.2764" xml:space="preserve" y="567.5698" clip-path="url(#clipPath2)" stroke="none">User</text>
    </g>
    <g fill="url(#linearGradient10)" text-rendering="geometricPrecision" shape-rendering="geometricPrecision" transform="matrix(1,0,0,1,-304,-322)" stroke="url(#linearGradient10)">
      <path d="M777.5 451 L847.5 451 Q857.5 471 847.5 491 L777.5 491 Q767.5 471 777.5 451 Z" stroke="none" clip-path="url(#clipPath2)"/>
    </g>
    <g text-rendering="geometricPrecision" stroke-miterlimit="1.45" shape-rendering="geometricPrecision" transform="matrix(1,0,0,1,-304,-322)" stroke-linecap="butt">
      <path fill="none" d="M777.5 451 L847.5 451 Q857.5 471 847.5 491 L777.5 491 Q767.5 471 777.5 451 Z" clip-path="url(#clipPath2)"/>
      <path fill="none" d="M847.5 451 Q837.5 471 847.5 491" clip-path="url(#clipPath2)"/>
      <text x="800.1631" xml:space="preserve" y="475.7139" clip-path="url(#clipPath2)" font-family="sans-serif" stroke="none">CAS</text>
    </g>
    <g fill="rgb(153,204,255)" text-rendering="geometricPrecision" shape-rendering="geometricPrecision" transform="matrix(1,0,0,1,-304,-322)" stroke="rgb(153,204,255)">
      <rect x="575.5" y="391" clip-path="url(#clipPath2)" width="277" rx="4" ry="4" height="40" stroke="none"/>
    </g>
    <g text-rendering="geometricPrecision" stroke-miterlimit="1.45" shape-rendering="geometricPrecision" transform="matrix(1,0,0,1,-304,-322)" stroke-linecap="butt">
      <rect x="575.5" y="391" clip-path="url(#clipPath2)" fill="none" width="277" rx="4" ry="4" height="40"/>
      <text x="639.6299" xml:space="preserve" y="415.7139" clip-path="url(#clipPath2)" font-family="sans-serif" stroke="none">Analysis Engine Description</text>
    </g>
    <g fill="rgb(204,255,255)" text-rendering="geometricPrecision" shape-rendering="geometricPrecision" transform="matrix(1,0,0,1,-304,-322)" stroke="rgb(204,255,255)">
      <rect x="882.5" y="511" clip-path="url(#clipPath2)" width="94" rx="4" ry="4" height="30" stroke="none"/>
    </g>
    <g text-rendering="geometricPrecision" stroke-miterlimit="1.45" stroke-dasharray="6,2" shape-rendering="geometricPrecision" transform="matrix(1,0,0,1,-304,-322)" stroke-linecap="butt">
      <rect x="882.5" y="511" clip-path="url(#clipPath2)" fill="none" width="94" rx="4" ry="4" height="30"/>
      <text x="898.1523" y="523.3633" clip-path="url(#clipPath2)" font-family="sans-serif" stroke-dasharray="none" stroke="none" xml:space="preserve">Native Java</text>
      <text x="896.8164" y="538.0645" clip-path="url(#clipPath2)" font-family="sans-serif" stroke-dasharray="none" stroke="none" xml:space="preserve">Serialization</text>
    </g>
    <g fill="rgb(254,189,146)" text-rendering="geometricPrecision" shape-rendering="geometricPrecision" transform="matrix(1,0,0,1,-304,-322)" stroke="rgb(254,189,146)">
      <rect x="575.5" y="511" clip-path="url(#clipPath2)" width="94" rx="4" ry="4" height="30" stroke="none"/>
    </g>
    <g text-rendering="geometricPrecision" stroke-miterlimit="1.45" shape-rendering="geometricPrecision" transform="matrix(1,0,0,1,-304,-322)" stroke-linecap="butt">
      <rect x="575.5" y="511" clip-path="url(#clipPath2)" fill="none" width="94" rx="4" ry="4" height="30"/>
      <text x="589.8164" xml:space="preserve" y="523.3633" clip-path="url(#clipPath2)" font-family="sans-serif" stroke="none">Serialization</text>
      <text x="597.1582" xml:space="preserve" y="538.0645" clip-path="url(#clipPath2)" font-family="sans-serif" stroke="none">Algorithm</text>
    </g>
    <g fill="url(#linearGradient11)" text-rendering="geometricPrecision" shape-rendering="geometricPrecision" transform="matrix(1,0,0,1,-304,-322)" stroke="url(#linearGradient11)">
      <rect x="575.5" y="561" clip-path="url(#clipPath2)" width="94" rx="4" ry="4" height="30" stroke="none"/>
    </g>
    <g text-rendering="geometricPrecision" stroke-miterlimit="1.45" shape-rendering="geometricPrecision" transform="matrix(1,0,0,1,-304,-322)" stroke-linecap="butt">
      <rect x="575.5" y="561" clip-path="url(#clipPath2)" fill="none" width="94" rx="4" ry="4" height="30"/>
      <text x="587.1533" xml:space="preserve" y="573.3633" clip-path="url(#clipPath2)" font-family="sans-serif" stroke="none">Compression</text>
      <text x="597.1582" xml:space="preserve" y="588.0645" clip-path="url(#clipPath2)" font-family="sans-serif" stroke="none">Algorithm</text>
      <path fill="none" d="M867.9984 817.5 L827.7696 817.5" clip-path="url(#clipPath2)"/>
      <path d="M819.7696 817.5 L831.7696 822.5 L828.7696 817.5 L831.7696 812.5 Z" clip-path="url(#clipPath2)" stroke="none"/>
      <path fill="none" d="M725.7227 817.5 L714.382 817.5" clip-path="url(#clipPath2)"/>
      <path d="M706.382 817.5 L718.382 822.5 L715.382 817.5 L718.382 812.5 Z" clip-path="url(#clipPath2)" stroke="none"/>
      <path fill="none" d="M612.3477 817.5 L601.007 817.5" clip-path="url(#clipPath2)"/>
      <path d="M593.007 817.5 L605.007 822.5 L602.007 817.5 L605.007 812.5 Z" clip-path="url(#clipPath2)" stroke="none"/>
      <path fill="none" d="M868 757.5 L827.7704 757.5" clip-path="url(#clipPath2)"/>
      <path d="M819.7704 757.5 L831.7704 762.5 L828.7704 757.5 L831.7704 752.5 Z" clip-path="url(#clipPath2)" stroke="none"/>
      <path fill="none" d="M725.7227 757.5 L714.382 757.5" clip-path="url(#clipPath2)"/>
      <path d="M706.382 757.5 L718.382 762.5 L715.382 757.5 L718.382 752.5 Z" clip-path="url(#clipPath2)" stroke="none"/>
      <path fill="none" d="M612.3477 757.5 L601.007 757.5" clip-path="url(#clipPath2)"/>
      <path d="M593.007 757.5 L605.007 762.5 L602.007 757.5 L605.007 752.5 Z" clip-path="url(#clipPath2)" stroke="none"/>
      <path fill="none" d="M867.9888 697.5 L827.7649 697.5" clip-path="url(#clipPath2)"/>
      <path d="M819.7649 697.5 L831.7649 702.5 L828.7649 697.5 L831.7649 692.5 Z" clip-path="url(#clipPath2)" stroke="none"/>
      <path fill="none" d="M725.7227 697.5 L714.382 697.5" clip-path="url(#clipPath2)"/>
      <path d="M706.382 697.5 L718.382 702.5 L715.382 697.5 L718.382 692.5 Z" clip-path="url(#clipPath2)" stroke="none"/>
      <path fill="none" d="M612.3477 697.5 L601.007 697.5" clip-path="url(#clipPath2)"/>
      <path d="M593.007 697.5 L605.007 702.5 L602.007 697.5 L605.007 692.5 Z" clip-path="url(#clipPath2)" stroke="none"/>
      <path fill="none" d="M859.5007 576 L882 576 L882 662.5264" clip-path="url(#clipPath2)"/>
      <path d="M882 670.5264 L887 658.5264 L882 661.5264 L877 658.5264 Z" clip-path="url(#clipPath2)" stroke="none"/>
      <path fill="none" d="M812.5 540.9902 L812.5 552.9909" clip-path="url(#clipPath2)"/>
      <path d="M812.5 560.9909 L817.5 548.9909 L812.5 551.9909 L807.5 548.9909 Z" clip-path="url(#clipPath2)" stroke="none"/>
      <path fill="none" d="M669.4897 471 L764.5228 471" clip-path="url(#clipPath2)"/>
      <path d="M772.5228 471 L760.5228 466 L763.5228 471 L760.5228 476 Z" clip-path="url(#clipPath2)" stroke="none"/>
      <text x="705.9912" xml:space="preserve" y="464.3633" clip-path="url(#clipPath2)" font-family="sans-serif" stroke="none">reads</text>
      <path fill="none" d="M812.5 491.0073 L812.5 502.9983" clip-path="url(#clipPath2)"/>
      <path d="M812.5 510.9983 L817.5 498.9983 L812.5 501.9983 L807.5 498.9983 Z" clip-path="url(#clipPath2)" stroke="none"/>
      <path fill="none" d="M852.5019 411 L929.5 411 L929.5 502.9792" clip-path="url(#clipPath2)"/>
      <path d="M929.5 510.9792 L934.5 498.9792 L929.5 501.9792 L924.5 498.9792 Z" clip-path="url(#clipPath2)" stroke="none"/>
      <path fill="none" d="M929.5 541.0031 L929.5 662.5252" clip-path="url(#clipPath2)"/>
      <path d="M929.5 670.5252 L934.5 658.5252 L929.5 661.5252 L924.5 658.5252 Z" clip-path="url(#clipPath2)" stroke="none"/>
      <path fill="none" d="M397 471 L571.5117 471" clip-path="url(#clipPath2)"/>
      <path d="M575.5117 471 L567.5117 465 L570.5117 471 L567.5117 477 Z" clip-path="url(#clipPath2)" stroke="none"/>
      <text x="458.2393" xml:space="preserve" y="464.3633" clip-path="url(#clipPath2)" font-family="sans-serif" stroke="none">Parameter</text>
      <path fill="none" d="M397 411 L571.506 411" clip-path="url(#clipPath2)"/>
      <path d="M575.506 411 L567.506 405 L570.506 411 L567.506 417 Z" clip-path="url(#clipPath2)" stroke="none"/>
      <text x="458.2393" xml:space="preserve" y="404.3633" clip-path="url(#clipPath2)" font-family="sans-serif" stroke="none">Parameter</text>
      <path fill="none" d="M397 526 L571.5117 526" clip-path="url(#clipPath2)"/>
      <path d="M575.5117 526 L567.5117 520 L570.5117 526 L567.5117 532 Z" clip-path="url(#clipPath2)" stroke="none"/>
      <text x="458.2393" xml:space="preserve" y="519.3633" clip-path="url(#clipPath2)" font-family="sans-serif" stroke="none">Parameter</text>
      <path fill="none" stroke-dasharray="6,2" d="M669.4897 526 L757.47 526" clip-path="url(#clipPath2)"/>
      <path stroke-dasharray="6,2" d="M765.47 526 L753.47 521 L756.47 526 L753.47 531 Z" clip-path="url(#clipPath2)" stroke="none"/>
      <text x="694.8213" xml:space="preserve" y="519.3633" clip-path="url(#clipPath2)" font-family="sans-serif" stroke="none">provides</text>
      <path fill="none" d="M397 576 L571.5117 576" clip-path="url(#clipPath2)"/>
      <path d="M575.5117 576 L567.5117 570 L570.5117 576 L567.5117 582 Z" clip-path="url(#clipPath2)" stroke="none"/>
      <text x="458.2393" xml:space="preserve" y="569.3633" clip-path="url(#clipPath2)" font-family="sans-serif" stroke="none">Parameter</text>
      <path fill="none" stroke-dasharray="6,2" d="M669.4897 576 L757.47 576" clip-path="url(#clipPath2)"/>
      <path stroke-dasharray="6,2" d="M765.47 576 L753.47 571 L756.47 576 L753.47 581 Z" clip-path="url(#clipPath2)" stroke="none"/>
      <text x="694.8213" xml:space="preserve" y="569.3633" clip-path="url(#clipPath2)" font-family="sans-serif" stroke="none">provides</text>
    </g>
  </g>
</svg>
